<?xml version="1.0" standalone="no"?>
<!DOCTYPE svg PUBLIC "-//W3C//DTD SVG 20010904//EN"
 "http://www.w3.org/TR/2001/REC-SVG-20010904/DTD/svg10.dtd">
<svg version="1.0" xmlns="http://www.w3.org/2000/svg"
 width="4335.000000pt" height="1248.000000pt" viewBox="0 0 4335.000000 1248.000000"
 preserveAspectRatio="xMidYMid meet">

<g transform="translate(0.000000,1248.000000) scale(0.100000,-0.100000)"
fill="#000000" stroke="none">
<path d="M4465 11704 c-49 -36 -91 -71 -115 -94 -14 -14 -57 -50 -95 -80 -39
-30 -72 -57 -75 -60 -3 -3 -25 -21 -50 -40 -25 -19 -51 -40 -58 -47 -8 -7 -35
-27 -60 -45 -26 -18 -52 -37 -59 -43 -28 -23 -42 -33 -124 -88 -48 -31 -94
-63 -102 -72 -9 -8 -19 -15 -23 -15 -4 0 -35 -17 -68 -38 -97 -62 -244 -146
-336 -193 -47 -24 -87 -46 -90 -49 -15 -15 -444 -222 -490 -236 -30 -9 -59
-21 -64 -25 -6 -5 -17 -9 -25 -9 -9 0 -28 -6 -43 -14 -15 -8 -42 -17 -60 -21
-18 -4 -37 -11 -43 -15 -14 -10 -307 -104 -544 -174 -29 -9 -61 -16 -70 -16
-10 0 -21 -3 -25 -7 -4 -5 -33 -13 -64 -20 -31 -6 -86 -19 -122 -27 -182 -44
-412 -89 -625 -121 -171 -27 -216 -33 -335 -50 -238 -32 -306 -44 -349 -57
-102 -31 -111 -83 -111 -666 0 -248 4 -530 10 -625 5 -94 14 -257 20 -362 17
-308 88 -986 120 -1140 6 -27 31 -165 55 -306 25 -141 54 -299 65 -350 31
-141 49 -228 61 -288 5 -30 13 -59 16 -64 3 -5 12 -37 19 -71 7 -34 19 -88 27
-121 9 -33 22 -87 30 -120 8 -33 23 -87 32 -120 9 -33 21 -80 27 -105 5 -25
14 -49 19 -54 5 -6 9 -20 9 -33 0 -12 6 -40 14 -60 7 -21 20 -60 28 -88 50
-163 83 -264 95 -292 7 -17 13 -40 13 -50 0 -10 4 -23 9 -29 6 -5 14 -27 20
-49 9 -38 54 -166 79 -228 7 -16 12 -35 12 -44 0 -8 8 -27 18 -41 10 -15 27
-47 37 -72 44 -107 66 -158 90 -215 7 -16 21 -50 30 -75 36 -89 140 -322 176
-393 10 -21 19 -44 19 -52 0 -8 4 -15 9 -15 5 0 12 -14 16 -30 4 -17 10 -30
15 -30 5 0 11 -14 15 -30 4 -17 10 -30 15 -30 4 0 11 -12 15 -27 3 -15 10 -30
13 -33 4 -3 29 -48 56 -100 92 -176 231 -422 299 -528 15 -23 37 -60 48 -82
12 -22 25 -40 29 -40 4 0 11 -11 14 -25 4 -14 11 -25 16 -25 6 0 10 -6 10 -14
0 -8 6 -21 13 -28 6 -8 17 -23 24 -33 7 -11 37 -60 68 -110 31 -49 62 -99 68
-110 7 -10 18 -25 25 -33 6 -7 12 -16 12 -20 0 -4 19 -28 42 -53 24 -26 50
-57 58 -69 15 -23 65 -86 100 -128 11 -13 20 -27 20 -30 0 -4 13 -20 28 -37
15 -16 49 -59 76 -94 27 -35 63 -78 80 -95 17 -18 49 -54 71 -81 22 -27 49
-59 60 -71 11 -13 47 -53 80 -91 77 -87 288 -297 390 -388 43 -38 93 -83 111
-100 18 -16 46 -40 61 -52 15 -12 37 -30 48 -40 40 -36 131 -110 195 -158 36
-27 67 -53 68 -57 2 -4 9 -8 16 -8 6 0 19 -8 27 -17 14 -16 129 -98 178 -128
9 -5 18 -12 21 -15 14 -14 70 -50 79 -50 5 0 11 -3 13 -7 5 -12 66 -53 78 -53
5 0 10 -4 10 -10 0 -5 5 -10 11 -10 6 0 78 -41 160 -90 81 -50 153 -90 159
-90 5 0 10 -4 10 -9 0 -16 77 -29 123 -20 43 8 191 79 247 119 15 11 31 20 35
20 14 0 366 223 402 254 41 36 142 106 152 106 5 0 11 4 13 9 2 5 35 32 73 62
39 29 72 55 75 59 3 3 18 16 34 28 l29 22 18638 0 18639 0 0 4770 0 4770
-18442 0 -18442 0 -136 67 c-74 37 -137 70 -140 73 -3 3 -23 14 -45 25 -22 11
-42 22 -45 25 -3 3 -27 16 -54 30 -28 14 -83 44 -123 68 -41 23 -80 42 -88 42
-8 0 -15 4 -15 8 0 5 -33 31 -72 58 -40 27 -78 53 -84 59 -6 5 -22 17 -35 25
-31 21 -191 141 -205 154 -6 6 -25 22 -43 36 -18 14 -42 33 -54 43 -44 37
-121 102 -131 112 -138 124 -210 157 -261 119z m140 -928 c69 -25 127 -60 200
-122 43 -36 431 -294 443 -294 6 0 12 -3 14 -7 3 -8 54 -37 153 -88 33 -16 62
-32 65 -35 7 -7 286 -145 345 -170 28 -11 59 -25 70 -30 57 -26 115 -49 160
-65 28 -10 55 -21 60 -25 6 -4 42 -17 80 -30 39 -12 88 -31 110 -41 42 -19
259 -91 385 -128 41 -13 84 -26 95 -30 68 -27 404 -114 540 -140 109 -20 181
-33 415 -76 41 -7 116 -21 165 -30 50 -9 128 -22 175 -28 47 -7 91 -16 98 -20
7 -5 20 -25 29 -45 15 -32 18 -83 21 -366 3 -296 -3 -466 -28 -806 -11 -147
-30 -329 -41 -395 -5 -33 -14 -98 -19 -145 -17 -141 -64 -444 -74 -478 -3 -10
-10 -46 -16 -82 -12 -73 -32 -178 -56 -290 -8 -41 -21 -102 -28 -135 -7 -33
-15 -67 -18 -75 -3 -8 -27 -100 -53 -205 -74 -297 -206 -749 -226 -770 -5 -5
-9 -18 -9 -28 0 -10 -6 -33 -13 -50 -18 -42 -36 -93 -49 -137 -5 -19 -14 -39
-19 -45 -5 -5 -9 -16 -9 -25 0 -8 -7 -28 -15 -44 -8 -15 -15 -36 -15 -45 0
-10 -7 -26 -15 -37 -8 -10 -15 -26 -15 -34 0 -8 -7 -28 -15 -44 -8 -15 -15
-33 -15 -38 0 -9 -8 -30 -46 -115 -16 -39 -38 -88 -52 -123 -34 -80 -54 -127
-62 -145 -5 -11 -19 -42 -30 -70 -32 -75 -69 -153 -99 -215 -51 -103 -125
-245 -131 -250 -3 -3 -18 -30 -33 -60 -15 -30 -42 -82 -61 -115 -18 -33 -48
-87 -66 -120 -18 -33 -39 -67 -46 -76 -8 -8 -14 -18 -14 -22 0 -3 -20 -40 -45
-80 -25 -41 -45 -78 -45 -81 0 -4 -5 -12 -10 -19 -11 -13 -186 -284 -278 -430
-30 -49 -72 -106 -93 -128 -22 -23 -39 -44 -39 -48 0 -3 -13 -21 -30 -39 -16
-18 -30 -35 -30 -38 0 -7 -72 -99 -81 -102 -5 -2 -9 -8 -9 -14 0 -6 -16 -29
-36 -52 -19 -23 -72 -86 -117 -141 -45 -55 -89 -107 -97 -115 -8 -9 -33 -37
-55 -64 -43 -51 -115 -123 -166 -165 -17 -14 -53 -46 -79 -71 -49 -47 -130
-118 -190 -166 -19 -16 -39 -34 -45 -40 -5 -6 -37 -31 -70 -55 -33 -24 -69
-52 -79 -61 -11 -10 -38 -30 -60 -45 -23 -15 -43 -30 -46 -33 -14 -14 -70 -50
-79 -50 -5 0 -11 -3 -13 -7 -5 -12 -66 -53 -78 -53 -5 0 -10 -4 -10 -10 0 -5
-7 -10 -15 -10 -8 0 -15 -4 -15 -10 0 -5 -6 -10 -13 -10 -6 0 -34 -16 -61 -35
-27 -19 -53 -35 -57 -35 -5 0 -48 -24 -97 -54 -124 -75 -147 -82 -218 -68 -32
7 -60 16 -64 21 -3 5 -18 13 -33 16 -15 4 -27 11 -27 16 0 5 -6 9 -13 9 -7 0
-36 16 -64 35 -29 19 -57 35 -63 35 -5 0 -10 5 -10 10 0 6 -5 10 -10 10 -12 0
-73 41 -78 53 -2 4 -8 7 -13 7 -12 0 -233 151 -237 162 -2 4 -8 8 -13 8 -8 0
-125 84 -139 100 -3 3 -36 30 -75 60 -143 112 -332 290 -490 461 -180 196
-229 251 -248 277 -42 58 -82 107 -89 110 -5 2 -8 10 -8 18 0 8 -7 17 -15 20
-8 4 -15 10 -15 15 0 5 -15 28 -32 52 -18 24 -40 54 -48 67 -8 12 -20 28 -26
34 -14 16 -279 417 -339 516 -27 45 -56 87 -63 95 -6 7 -12 18 -12 24 0 5 -6
16 -13 23 -7 7 -18 24 -24 38 -19 38 -59 108 -70 122 -10 13 -62 106 -112 203
-14 28 -29 52 -32 55 -6 5 -140 278 -213 433 -93 198 -292 677 -318 767 -5 19
-14 39 -19 45 -5 5 -9 16 -9 25 0 8 -7 28 -15 44 -8 15 -15 34 -15 41 0 8 -5
26 -12 42 -23 58 -47 128 -48 141 0 8 -6 28 -13 45 -19 45 -47 132 -47 147 0
7 -6 26 -14 43 -19 45 -46 136 -46 158 0 10 -4 20 -9 23 -5 3 -12 23 -15 43
-4 21 -13 56 -21 78 -7 22 -21 67 -30 100 -9 33 -21 71 -26 85 -5 14 -14 48
-19 75 -5 28 -17 83 -25 122 -9 40 -22 103 -30 140 -7 38 -19 86 -24 108 -19
70 -64 311 -82 435 -5 36 -13 85 -18 110 -11 50 -27 168 -41 305 -5 50 -14
117 -19 150 -13 77 -30 266 -41 470 -5 88 -14 205 -20 260 -5 55 -10 240 -11
410 0 293 1 313 21 357 36 83 53 90 280 128 145 23 229 39 355 64 73 14 112
23 290 60 71 16 218 52 260 66 17 5 49 12 73 16 23 4 45 11 48 15 3 5 13 9 23
9 18 0 75 16 256 72 154 47 278 87 300 97 11 5 72 28 135 51 63 24 129 48 145
56 17 7 51 22 77 33 26 12 54 21 62 21 9 0 16 4 16 9 0 5 11 12 24 15 39 10
439 199 456 216 3 3 23 14 45 25 22 11 62 34 90 52 27 18 55 33 62 33 7 0 13
5 13 10 0 6 7 10 15 10 8 0 15 5 15 10 0 6 5 10 10 10 12 0 73 41 78 53 2 4 9
7 16 7 7 0 28 12 47 26 19 14 48 31 64 39 17 7 40 22 52 34 12 11 27 21 32 21
6 0 14 6 18 13 4 6 37 34 73 62 36 27 67 53 68 57 2 5 10 8 17 8 8 0 20 6 27
13 40 41 162 57 233 33z m37825 -4786 l0 -4320 -18165 0 c-9991 0 -18165 3
-18165 6 0 3 33 39 73 78 39 40 98 101 130 137 32 35 89 98 127 139 38 41 105
125 150 185 45 61 89 115 96 121 8 6 14 14 14 17 0 5 144 204 170 234 5 7 10
17 10 22 0 6 6 14 13 18 6 4 17 16 22 25 6 9 58 88 116 175 59 87 112 168 118
180 6 12 17 27 24 35 7 7 23 34 37 61 14 26 28 47 32 47 5 0 8 6 8 14 0 8 6
21 13 28 7 7 18 24 24 38 7 14 26 48 42 75 17 28 35 59 40 70 5 11 34 65 65
119 61 108 292 572 349 701 62 140 157 365 157 371 0 3 8 24 19 47 10 23 33
83 51 132 18 50 37 94 42 100 4 5 8 18 8 30 0 11 6 32 14 47 8 15 17 40 21 57
4 17 11 33 16 36 5 4 9 16 9 28 0 12 7 35 15 51 8 15 15 35 15 43 0 8 6 29 13
46 8 18 29 79 47 137 18 58 37 114 41 125 5 11 13 38 18 60 16 65 36 129 42
140 4 6 10 26 13 45 4 19 13 59 22 87 8 29 21 79 30 110 9 32 20 72 25 89 5
16 13 50 19 75 16 76 38 163 49 199 6 19 18 67 27 105 8 39 22 97 30 130 24
99 44 196 54 270 5 39 14 90 20 115 12 58 30 166 41 255 4 38 13 90 18 115 12
52 29 175 42 305 5 50 14 109 19 132 6 23 10 59 10 80 0 21 9 85 19 143 35
194 40 254 41 500 0 135 5 315 10 400 13 206 13 881 0 1049 -13 173 -20 185
-114 205 -69 16 -102 21 -326 51 -246 33 -523 78 -680 110 -162 32 -333 71
-375 84 -19 6 6590 10 17553 10 l17582 1 0 -4320z"/>
<path d="M4473 10260 c-18 -25 -37 -50 -43 -57 -5 -7 -10 -15 -10 -18 0 -8
-44 -69 -52 -73 -5 -2 -8 -10 -8 -17 0 -7 -7 -15 -15 -19 -8 -3 -15 -12 -15
-21 0 -8 -4 -15 -10 -15 -5 0 -10 -6 -10 -13 0 -8 -8 -24 -19 -36 -10 -12 -29
-37 -42 -56 -13 -19 -27 -35 -31 -35 -5 0 -8 -7 -8 -15 0 -8 -4 -15 -10 -15
-5 0 -10 -6 -10 -14 0 -8 -14 -30 -30 -48 -17 -18 -33 -43 -36 -55 -4 -13 -10
-23 -15 -23 -5 0 -9 -7 -9 -15 0 -8 -4 -15 -9 -15 -5 0 -24 -23 -42 -51 -18
-28 -37 -56 -43 -62 -6 -7 -17 -24 -24 -38 -8 -14 -25 -39 -38 -54 -13 -15
-24 -34 -24 -42 0 -7 -4 -13 -10 -13 -5 0 -10 -7 -10 -15 0 -7 -6 -18 -13 -22
-13 -8 -87 -109 -87 -118 0 -3 108 -5 240 -5 l240 0 0 -2271 0 -2270 -35 27
c-19 14 -35 30 -35 35 0 5 -6 9 -12 9 -7 0 -30 16 -51 35 -21 19 -44 35 -51
35 -7 0 -19 11 -26 25 -7 14 -18 25 -24 25 -6 0 -26 16 -45 35 -19 19 -38 35
-42 35 -5 0 -28 18 -51 41 -24 22 -55 48 -70 57 -16 9 -28 20 -28 24 0 4 -4 8
-10 8 -5 0 -27 16 -47 35 -20 19 -41 35 -45 35 -4 0 -23 15 -42 33 -19 19 -53
49 -76 68 -23 19 -50 41 -60 49 -10 8 -31 24 -46 35 -15 11 -38 30 -50 43 -13
12 -27 22 -31 22 -4 0 -26 18 -47 40 -22 22 -43 40 -47 40 -22 0 -139 137
-139 162 0 10 -4 18 -8 18 -5 0 -16 33 -25 73 -15 61 -17 128 -17 427 l0 355
70 24 c39 13 70 28 70 33 0 4 7 8 17 8 16 0 85 47 91 62 2 4 8 8 14 8 14 0 78
65 78 79 0 6 7 11 15 11 8 0 15 9 15 20 0 11 3 20 8 20 10 0 62 95 62 114 0 9
5 16 10 16 6 0 10 13 10 29 0 16 5 31 12 33 8 3 12 50 12 163 0 113 -4 160
-12 163 -7 2 -12 17 -12 33 0 16 -4 29 -10 29 -5 0 -10 8 -10 18 0 9 -16 41
-35 71 -19 29 -35 59 -35 67 0 8 -5 14 -11 14 -13 0 -33 20 -42 43 -4 9 -14
20 -24 24 -9 4 -30 19 -47 35 -36 34 -127 88 -150 88 -9 0 -16 4 -16 8 0 12
-164 42 -224 42 -50 0 -227 -30 -236 -40 -3 -3 -30 -17 -60 -31 -57 -28 -83
-47 -153 -115 -52 -50 -85 -91 -100 -124 -6 -14 -14 -27 -17 -30 -3 -3 -18
-41 -34 -85 -23 -63 -30 -103 -33 -190 -5 -104 -3 -115 28 -210 18 -55 35
-102 39 -105 3 -3 11 -16 17 -30 29 -64 159 -194 223 -223 14 -6 27 -14 30
-17 3 -3 30 -14 62 -25 l56 -19 4 -424 c2 -329 6 -426 16 -430 6 -2 12 -19 12
-38 0 -19 5 -34 10 -34 6 0 10 -10 10 -23 0 -13 16 -49 35 -81 19 -32 35 -62
35 -66 0 -8 42 -58 100 -120 14 -14 52 -49 85 -76 33 -27 67 -57 76 -66 9 -10
20 -18 25 -18 5 0 24 -16 43 -35 19 -19 38 -35 42 -35 10 0 54 -36 82 -68 12
-12 24 -22 29 -22 4 0 20 -11 35 -25 70 -62 99 -85 111 -85 6 0 12 -5 12 -11
0 -12 25 -39 37 -39 4 0 25 -16 46 -35 21 -19 40 -35 42 -35 5 0 36 -25 85
-70 48 -43 70 -60 78 -60 4 0 24 -16 44 -35 20 -19 39 -35 42 -35 6 0 25 -16
101 -85 28 -25 53 -45 56 -45 3 0 17 -10 31 -23 77 -69 110 -97 117 -97 4 0
15 -8 24 -18 15 -16 17 -53 17 -314 0 -163 -3 -303 -6 -312 -3 -9 -17 -16 -31
-16 -25 0 -165 -67 -171 -82 -2 -5 -12 -8 -21 -8 -10 0 -33 -16 -52 -35 -19
-19 -38 -35 -44 -35 -5 0 -23 -17 -40 -37 -16 -20 -47 -54 -67 -76 -20 -22
-45 -57 -55 -76 -10 -20 -21 -38 -25 -39 -5 -2 -8 -9 -8 -15 0 -7 -16 -50 -35
-97 -23 -55 -35 -102 -35 -132 0 -27 -4 -48 -10 -48 -6 0 -10 -42 -10 -105 0
-63 4 -105 10 -105 6 0 10 -20 10 -44 0 -43 31 -142 57 -181 7 -11 13 -27 13
-37 0 -10 5 -18 10 -18 6 0 10 -7 10 -15 0 -16 26 -56 70 -109 35 -41 150
-156 157 -156 3 0 38 -20 77 -45 40 -25 80 -45 89 -45 10 0 17 -4 17 -9 0 -5
18 -11 40 -15 22 -3 40 -10 40 -14 0 -9 165 -32 230 -32 65 0 230 23 230 32 0
4 18 11 40 14 22 4 40 10 40 15 0 5 7 9 17 9 19 0 98 45 127 72 11 10 26 18
33 18 7 0 13 5 13 10 0 6 5 10 10 10 16 0 160 148 160 164 0 8 4 16 9 18 15 5
81 128 81 149 0 10 4 19 8 19 18 0 57 204 56 300 0 95 -38 290 -56 290 -4 0
-8 10 -9 23 0 12 -14 45 -30 72 -16 28 -32 57 -36 65 -4 8 -12 21 -17 28 -72
86 -102 121 -108 121 -5 1 -27 19 -50 41 -24 22 -46 40 -50 40 -3 0 -13 6 -20
12 -23 23 -168 88 -193 88 l-25 0 0 949 0 948 63 66 c125 133 645 662 751 766
36 35 66 67 66 71 0 4 43 50 95 102 52 52 95 100 95 107 0 6 4 11 9 11 5 0 19
15 30 33 11 18 29 43 40 56 12 13 26 39 33 57 7 19 16 34 20 34 4 0 8 10 8 23
0 13 4 27 9 32 20 22 61 166 61 214 0 28 5 51 10 51 6 0 10 72 10 195 l0 195
205 0 205 0 0 585 0 585 -577 -2 -578 -3 0 -580 0 -580 213 -3 212 -2 0 -195
c0 -123 -4 -195 -10 -195 -5 0 -10 -13 -10 -30 0 -37 -43 -153 -70 -187 -11
-14 -20 -31 -20 -39 0 -7 -3 -14 -7 -16 -5 -1 -24 -23 -44 -48 -20 -25 -114
-123 -208 -218 -94 -96 -171 -176 -171 -178 0 -4 -102 -104 -106 -104 -2 0
-36 -34 -76 -77 -40 -42 -115 -119 -165 -171 l-93 -96 0 1612 0 1612 230 0
c201 0 230 2 230 15 0 9 -5 21 -10 28 -10 11 -62 81 -108 146 -9 13 -23 29
-29 36 -7 8 -13 18 -13 23 0 5 -14 25 -30 43 -17 19 -33 44 -36 57 -3 12 -10
22 -14 22 -5 0 -11 8 -14 18 -3 9 -19 32 -35 51 -16 19 -35 46 -43 60 -7 14
-18 31 -24 38 -6 6 -26 35 -45 65 -18 29 -37 55 -41 56 -5 2 -8 9 -8 15 0 7
-10 23 -22 37 -33 36 -78 97 -78 106 0 4 -8 14 -17 23 -10 9 -26 33 -37 53
-10 20 -27 46 -37 57 -11 11 -19 25 -19 31 0 5 -4 10 -9 10 -5 0 -11 8 -13 17
-2 13 -12 5 -35 -27z"/>
<path d="M9850 5845 l0 -3015 785 0 785 0 0 1235 0 1235 1070 0 1070 0 0
-1235 0 -1235 785 0 785 0 0 3015 0 3015 -785 0 -785 0 0 -1165 0 -1165 -1070
0 -1070 0 0 1165 0 1165 -785 0 -785 0 0 -3015z"/>
<path d="M16280 5845 l0 -3015 780 0 780 0 0 999 0 1000 628 4 c699 4 749 8
1037 82 725 186 1147 674 1274 1475 110 687 -15 1358 -327 1764 -263 342 -698
574 -1247 665 -231 39 -320 41 -1637 41 l-1288 0 0 -3015z m2270 1735 c376
-31 584 -175 655 -454 54 -214 37 -518 -37 -675 -46 -96 -150 -197 -258 -249
-161 -79 -248 -91 -717 -99 l-353 -6 0 747 0 746 298 0 c163 0 349 -5 412 -10z"/>
<path d="M22230 8854 c0 -10 -980 -5975 -985 -6002 l-5 -22 757 0 758 0 234
1668 c278 1983 252 1802 260 1802 3 0 308 -781 676 -1735 l670 -1735 304 3
305 2 698 1725 c383 949 699 1730 701 1735 2 6 7 8 9 5 5 -4 429 -3427 428
-3457 0 -10 159 -13 760 -13 l760 0 0 23 c-1 12 -198 1368 -438 3012 l-438
2990 -759 2 -760 3 -619 -1594 c-340 -876 -621 -1599 -625 -1605 -4 -6 -273
710 -598 1591 l-590 1603 -752 3 c-413 1 -751 -1 -751 -4z"/>
<path d="M29310 5095 l0 -2265 590 0 590 0 2 982 3 982 735 -982 734 -982 739
0 c588 0 737 3 730 13 -4 6 -428 539 -942 1182 -514 644 -935 1177 -935 1185
-1 8 400 491 889 1073 490 582 892 1062 893 1067 2 6 -259 10 -720 10 l-725 0
-20 -22 c-11 -13 -325 -432 -697 -933 -372 -500 -681 -911 -686 -913 -7 -2
-10 327 -10 932 l0 936 -585 0 -585 0 0 -2265z"/>
<path d="M33860 5095 l0 -2265 1265 0 1265 0 0 500 0 500 -680 0 -680 0 0 385
0 385 643 2 642 3 3 498 2 497 -645 0 -645 0 0 375 0 375 678 2 677 3 0 500 0
500 -1262 3 -1263 2 0 -2265z"/>
<path d="M36684 7344 c3 -9 366 -540 806 -1180 l800 -1164 0 -1085 0 -1085
590 0 590 0 0 1088 0 1089 805 1172 c443 645 805 1174 805 1177 0 2 -311 3
-691 2 l-691 -3 -408 -605 c-224 -332 -413 -606 -418 -608 -5 -1 -195 272
-422 608 l-411 610 -681 0 c-619 0 -680 -1 -674 -16z"/>
</g>
</svg>
